<mxfile host="65bd71144e">
    <diagram id="5lWmR9Dlv0uMMUv7oDpQ" name="第 1 页">
        <mxGraphModel dx="1389" dy="947" grid="1" gridSize="10" guides="1" tooltips="1" connect="1" arrows="1" fold="1" page="1" pageScale="1" pageWidth="827" pageHeight="1169" math="0" shadow="0">
            <root>
                <mxCell id="0"/>
                <mxCell id="1" parent="0"/>
                <mxCell id="35" style="edgeStyle=orthogonalEdgeStyle;curved=1;rounded=0;orthogonalLoop=1;jettySize=auto;html=1;exitX=1;exitY=0.5;exitDx=0;exitDy=0;entryX=0.5;entryY=1;entryDx=0;entryDy=0;entryPerimeter=0;startSize=0;" parent="1" source="2" target="13" edge="1">
                    <mxGeometry relative="1" as="geometry">
                        <mxPoint x="350" y="900" as="sourcePoint"/>
                    </mxGeometry>
                </mxCell>
                <mxCell id="2" value="head" style="ellipse;whiteSpace=wrap;html=1;" parent="1" vertex="1">
                    <mxGeometry x="210" y="900" width="100" height="40" as="geometry"/>
                </mxCell>
                <mxCell id="4" value="" style="shape=table;html=1;whiteSpace=wrap;startSize=0;container=1;collapsible=0;childLayout=tableLayout;rounded=0;shadow=0;fixedRows=0;rowLines=1;columnLines=0;perimeterSpacing=7;resizeLast=0;arcSize=15;" parent="1" vertex="1">
                    <mxGeometry x="510" y="620" width="90" height="220" as="geometry"/>
                </mxCell>
                <mxCell id="19" style="shape=partialRectangle;html=1;whiteSpace=wrap;collapsible=0;dropTarget=0;pointerEvents=0;fillColor=none;top=0;left=0;bottom=0;right=0;points=[[0,0.5],[1,0.5]];portConstraint=eastwest;" parent="4" vertex="1">
                    <mxGeometry width="90" height="44" as="geometry"/>
                </mxCell>
                <mxCell id="20" value="&lt;span&gt;nullptr&lt;/span&gt;" style="shape=partialRectangle;html=1;whiteSpace=wrap;connectable=0;fillColor=none;top=0;left=0;bottom=0;right=0;overflow=hidden;" parent="19" vertex="1">
                    <mxGeometry width="90" height="44" as="geometry"/>
                </mxCell>
                <mxCell id="17" style="shape=partialRectangle;html=1;whiteSpace=wrap;collapsible=0;dropTarget=0;pointerEvents=0;fillColor=none;top=0;left=0;bottom=0;right=0;points=[[0,0.5],[1,0.5]];portConstraint=eastwest;" parent="4" vertex="1">
                    <mxGeometry y="44" width="90" height="44" as="geometry"/>
                </mxCell>
                <mxCell id="18" value="&lt;span&gt;nullptr&lt;/span&gt;" style="shape=partialRectangle;html=1;whiteSpace=wrap;connectable=0;fillColor=none;top=0;left=0;bottom=0;right=0;overflow=hidden;" parent="17" vertex="1">
                    <mxGeometry width="90" height="44" as="geometry"/>
                </mxCell>
                <mxCell id="5" value="" style="shape=partialRectangle;html=1;whiteSpace=wrap;collapsible=0;dropTarget=0;pointerEvents=0;fillColor=none;top=0;left=0;bottom=0;right=0;points=[[0,0.5],[1,0.5]];portConstraint=eastwest;" parent="4" vertex="1">
                    <mxGeometry y="88" width="90" height="44" as="geometry"/>
                </mxCell>
                <mxCell id="7" value="&lt;span&gt;nullptr&lt;/span&gt;" style="shape=partialRectangle;html=1;whiteSpace=wrap;connectable=0;fillColor=none;top=0;left=0;bottom=0;right=0;overflow=hidden;" parent="5" vertex="1">
                    <mxGeometry width="90" height="44" as="geometry"/>
                </mxCell>
                <mxCell id="9" value="" style="shape=partialRectangle;html=1;whiteSpace=wrap;collapsible=0;dropTarget=0;pointerEvents=0;fillColor=none;top=0;left=0;bottom=0;right=0;points=[[0,0.5],[1,0.5]];portConstraint=eastwest;" parent="4" vertex="1">
                    <mxGeometry y="132" width="90" height="44" as="geometry"/>
                </mxCell>
                <mxCell id="11" value="&lt;span&gt;nullptr&lt;/span&gt;" style="shape=partialRectangle;html=1;whiteSpace=wrap;connectable=0;fillColor=none;top=0;left=0;bottom=0;right=0;overflow=hidden;" parent="9" vertex="1">
                    <mxGeometry width="90" height="44" as="geometry"/>
                </mxCell>
                <mxCell id="13" value="" style="shape=partialRectangle;html=1;whiteSpace=wrap;collapsible=0;dropTarget=0;pointerEvents=0;fillColor=none;top=0;left=0;bottom=0;right=0;points=[[0,0.5],[1,0.5]];portConstraint=eastwest;" parent="4" vertex="1">
                    <mxGeometry y="176" width="90" height="44" as="geometry"/>
                </mxCell>
                <mxCell id="15" value="nullptr" style="shape=partialRectangle;html=1;whiteSpace=wrap;connectable=0;fillColor=none;top=0;left=0;bottom=0;right=0;overflow=hidden;" parent="13" vertex="1">
                    <mxGeometry width="90" height="44" as="geometry"/>
                </mxCell>
                <mxCell id="21" value="CNode" style="swimlane;fontStyle=0;childLayout=stackLayout;horizontal=1;startSize=26;fillColor=none;horizontalStack=0;resizeParent=1;resizeParentMax=0;resizeLast=0;collapsible=1;marginBottom=0;rounded=0;shadow=0;" parent="1" vertex="1">
                    <mxGeometry x="130" y="210" width="200" height="130" as="geometry"/>
                </mxCell>
                <mxCell id="22" value="K m_Key" style="text;strokeColor=none;fillColor=none;align=left;verticalAlign=top;spacingLeft=4;spacingRight=4;overflow=hidden;rotatable=0;points=[[0,0.5],[1,0.5]];portConstraint=eastwest;" parent="21" vertex="1">
                    <mxGeometry y="26" width="200" height="26" as="geometry"/>
                </mxCell>
                <mxCell id="23" value="V m_Value&#10;" style="text;strokeColor=none;fillColor=none;align=left;verticalAlign=top;spacingLeft=4;spacingRight=4;overflow=hidden;rotatable=0;points=[[0,0.5],[1,0.5]];portConstraint=eastwest;" parent="21" vertex="1">
                    <mxGeometry y="52" width="200" height="26" as="geometry"/>
                </mxCell>
                <mxCell id="25" value="CNode&lt;K, V&gt;** m_pForward" style="text;strokeColor=none;fillColor=none;align=left;verticalAlign=top;spacingLeft=4;spacingRight=4;overflow=hidden;rotatable=0;points=[[0,0.5],[1,0.5]];portConstraint=eastwest;" parent="21" vertex="1">
                    <mxGeometry y="78" width="200" height="26" as="geometry"/>
                </mxCell>
                <mxCell id="26" value="int m_iNodeLevel" style="text;strokeColor=none;fillColor=none;align=left;verticalAlign=top;spacingLeft=4;spacingRight=4;overflow=hidden;rotatable=0;points=[[0,0.5],[1,0.5]];portConstraint=eastwest;" parent="21" vertex="1">
                    <mxGeometry y="104" width="200" height="26" as="geometry"/>
                </mxCell>
                <mxCell id="28" style="edgeStyle=orthogonalEdgeStyle;rounded=0;orthogonalLoop=1;jettySize=auto;html=1;entryX=1;entryY=0.5;entryDx=0;entryDy=0;startSize=0;curved=1;" parent="1" source="27" target="23" edge="1">
                    <mxGeometry relative="1" as="geometry"/>
                </mxCell>
                <mxCell id="27" value="&lt;h1&gt;节点类&lt;/h1&gt;&lt;p&gt;&lt;/p&gt;&lt;ul&gt;&lt;li&gt;插入的节点，key。value；&lt;/li&gt;&lt;li&gt;同时包含一个指针m_pForward，指向每一层当前节点的后面节点&lt;/li&gt;&lt;li&gt;m_iNodeLevel为当前节点的层数&lt;/li&gt;&lt;/ul&gt;&lt;p&gt;&lt;/p&gt;" style="text;html=1;strokeColor=#2D7600;fillColor=#60a917;spacing=5;spacingTop=-20;whiteSpace=wrap;overflow=hidden;rounded=0;shadow=0;startSize=0;fontColor=#ffffff;labelBorderColor=#000000;" parent="1" vertex="1">
                    <mxGeometry x="440" y="230" width="250" height="129" as="geometry"/>
                </mxCell>
                <mxCell id="29" value="CSkipList" style="swimlane;fontStyle=0;childLayout=stackLayout;horizontal=1;startSize=26;fillColor=none;horizontalStack=0;resizeParent=1;resizeParentMax=0;resizeLast=0;collapsible=1;marginBottom=0;rounded=0;shadow=0;" parent="1" vertex="1">
                    <mxGeometry x="140" y="410" width="140" height="104" as="geometry"/>
                </mxCell>
                <mxCell id="30" value="m_iMaxLevel = 4" style="text;strokeColor=none;fillColor=none;align=left;verticalAlign=top;spacingLeft=4;spacingRight=4;overflow=hidden;rotatable=0;points=[[0,0.5],[1,0.5]];portConstraint=eastwest;" parent="29" vertex="1">
                    <mxGeometry y="26" width="140" height="26" as="geometry"/>
                </mxCell>
                <mxCell id="31" value="m_iCurLevel = 0" style="text;strokeColor=none;fillColor=none;align=left;verticalAlign=top;spacingLeft=4;spacingRight=4;overflow=hidden;rotatable=0;points=[[0,0.5],[1,0.5]];portConstraint=eastwest;" parent="29" vertex="1">
                    <mxGeometry y="52" width="140" height="26" as="geometry"/>
                </mxCell>
                <mxCell id="32" value="m_pHeader = head" style="text;strokeColor=none;fillColor=none;align=left;verticalAlign=top;spacingLeft=4;spacingRight=4;overflow=hidden;rotatable=0;points=[[0,0.5],[1,0.5]];portConstraint=eastwest;" parent="29" vertex="1">
                    <mxGeometry y="78" width="140" height="26" as="geometry"/>
                </mxCell>
                <mxCell id="34" style="edgeStyle=orthogonalEdgeStyle;curved=1;rounded=0;orthogonalLoop=1;jettySize=auto;html=1;entryX=1;entryY=0.5;entryDx=0;entryDy=0;startSize=0;" parent="1" source="33" target="31" edge="1">
                    <mxGeometry relative="1" as="geometry"/>
                </mxCell>
                <mxCell id="33" value="&lt;h1&gt;跳表类&lt;/h1&gt;&lt;p&gt;&lt;/p&gt;&lt;ul&gt;&lt;li&gt;记录跳表最大层数和当前层数；&lt;/li&gt;&lt;li&gt;m_pHeader指向头节点，头节点指向的forward数组为空&lt;/li&gt;&lt;/ul&gt;&lt;p&gt;&lt;/p&gt;" style="text;html=1;strokeColor=#2D7600;fillColor=#60a917;spacing=5;spacingTop=-20;whiteSpace=wrap;overflow=hidden;rounded=0;shadow=0;startSize=0;fontColor=#ffffff;labelBorderColor=#000000;" parent="1" vertex="1">
                    <mxGeometry x="440" y="410" width="230" height="110" as="geometry"/>
                </mxCell>
                <mxCell id="36" style="edgeStyle=orthogonalEdgeStyle;curved=1;rounded=0;orthogonalLoop=1;jettySize=auto;html=1;exitX=0;exitY=0.5;exitDx=0;exitDy=0;entryX=0.5;entryY=0;entryDx=0;entryDy=0;startSize=0;" parent="1" source="31" target="2" edge="1">
                    <mxGeometry relative="1" as="geometry">
                        <mxPoint x="300" y="920" as="targetPoint"/>
                    </mxGeometry>
                </mxCell>
            </root>
        </mxGraphModel>
    </diagram>
</mxfile>